<?xml version="1.0" standalone="no"?>
<!DOCTYPE svg PUBLIC "-//W3C//DTD SVG 20010904//EN"
 "http://www.w3.org/TR/2001/REC-SVG-20010904/DTD/svg10.dtd">
<svg version="1.0" xmlns="http://www.w3.org/2000/svg"
 width="700.000000pt" height="700.000000pt" viewBox="0 0 700.000000 700.000000"
 preserveAspectRatio="xMidYMid meet">
<metadata>
Created by potrace 1.11, written by Peter Selinger 2001-2013
</metadata>
<g transform="translate(0.000000,700.000000) scale(0.100000,-0.100000)"
fill="#000000" stroke="none">
<path d="M3239 6826 c-2 -2 -33 -7 -69 -11 -36 -3 -76 -8 -90 -10 -72 -9 -120
-17 -165 -25 -27 -5 -66 -12 -85 -15 -49 -8 -280 -69 -370 -99 -69 -22 -174
-62 -275 -104 -52 -22 -299 -145 -350 -175 -104 -61 -348 -226 -365 -247 -3
-3 -14 -13 -26 -21 -117 -81 -412 -369 -516 -505 -12 -16 -25 -31 -29 -34 -12
-10 -146 -196 -191 -265 -194 -300 -347 -647 -433 -987 -27 -105 -61 -269 -69
-333 -2 -22 -7 -60 -11 -85 -18 -140 -23 -239 -20 -450 2 -129 6 -248 9 -265
3 -16 7 -52 10 -80 47 -433 203 -899 427 -1281 68 -115 194 -301 261 -385 107
-134 146 -176 268 -299 453 -453 1024 -766 1645 -900 134 -29 133 -29 180 -35
22 -3 56 -8 75 -10 190 -28 510 -38 690 -23 47 4 108 10 137 12 235 22 573
107 843 213 318 125 678 338 909 538 14 12 51 44 81 70 30 26 94 87 141 134
75 76 110 113 204 222 67 78 225 296 275 380 170 288 274 518 354 782 36 117
79 297 91 372 3 22 7 47 10 55 2 8 7 38 10 65 4 28 8 61 10 75 27 202 27 633
0 810 -2 14 -6 45 -10 70 -3 25 -8 56 -10 70 -3 14 -7 39 -10 55 -3 17 -7 41
-10 55 -4 14 -8 36 -11 50 -8 44 -51 201 -83 307 -111 359 -343 790 -580 1075
-183 220 -352 385 -555 541 -55 43 -110 84 -121 93 -11 8 -74 50 -140 92 -210
133 -504 272 -745 352 -68 22 -308 86 -358 95 -99 17 -274 45 -317 50 -55 7
-610 16 -616 11z m526 -510 c39 -4 77 -9 85 -11 8 -2 40 -7 70 -10 63 -7 256
-48 339 -71 358 -101 693 -270 986 -500 181 -143 306 -269 504 -509 22 -27
156 -226 164 -245 4 -8 16 -28 27 -45 30 -46 107 -198 152 -299 38 -88 132
-354 142 -406 2 -14 11 -54 20 -90 8 -36 17 -78 20 -95 23 -138 27 -165 42
-320 12 -124 5 -452 -11 -535 -2 -11 -6 -43 -9 -72 -6 -54 -8 -63 -27 -158
-57 -288 -173 -598 -316 -850 -35 -62 -187 -290 -210 -315 -10 -11 -45 -54
-78 -95 -251 -312 -659 -616 -1045 -779 -41 -18 -84 -36 -95 -41 -50 -22 -282
-95 -338 -106 -10 -2 -27 -6 -37 -9 -10 -3 -29 -8 -42 -10 -13 -3 -34 -7 -48
-10 -32 -7 -54 -11 -110 -20 -25 -4 -53 -9 -63 -11 -137 -25 -680 -25 -759 0
-7 3 -35 7 -63 10 -60 7 -143 22 -199 37 -23 6 -49 13 -58 14 -57 11 -232 66
-303 95 -11 4 -51 20 -90 36 -176 70 -397 194 -575 323 -585 424 -977 1045
-1116 1766 -2 11 -6 31 -9 45 -2 14 -7 50 -11 80 -3 30 -8 66 -10 80 -34 231
-16 624 41 890 3 14 7 34 9 45 12 61 64 236 103 345 107 299 340 693 533 901
287 309 527 493 862 660 189 95 463 193 618 223 14 2 57 11 95 20 39 8 97 18
130 21 33 4 62 9 65 10 3 2 48 7 100 10 52 4 96 8 97 9 5 5 346 -2 418 -8z"/>
<path d="M4920 4870 c-19 -10 -430 -414 -914 -898 l-879 -880 -508 509 c-279
279 -523 516 -541 525 -42 22 -115 23 -159 1 -49 -23 -295 -274 -314 -319 -19
-46 -19 -96 -1 -139 8 -20 302 -321 757 -777 409 -409 749 -748 756 -754 17
-14 2257 2224 2278 2276 19 45 19 97 0 142 -16 39 -251 280 -305 313 -45 27
-121 27 -170 1z"/>
</g>
</svg>
